<svg t="1615967210197" class="icon" viewBox="0 0 1024 1024" version="1.1" xmlns="http://www.w3.org/2000/svg" p-id="8084" width="48" height="48"><path d="M512 554.666667a256 256 0 1 0 0-512 256 256 0 0 0 0 512z m0-85.333334a170.666667 170.666667 0 1 1 0-341.333333 170.666667 170.666667 0 0 1 0 341.333333z" p-id="8085"></path><path d="M981.333333 938.666667c0-264.661333-207.402667-469.333333-469.333333-469.333334S42.666667 674.005333 42.666667 938.666667a42.666667 42.666667 0 0 0 42.666666 42.666666h853.333334a42.666667 42.666667 0 0 0 42.666666-42.666666zM130.218667 896c20.48-196.053333 181.034667-341.333333 381.781333-341.333333s361.301333 145.28 381.781333 341.333333H130.218667z" p-id="8086"></path></svg>