<?xml version="1.0" standalone="no"?><!DOCTYPE svg PUBLIC "-//W3C//DTD SVG 1.1//EN" "http://www.w3.org/Graphics/SVG/1.1/DTD/svg11.dtd"><svg t="1621058483927" class="icon" viewBox="0 0 1024 1024" version="1.1" xmlns="http://www.w3.org/2000/svg" p-id="3606" xmlns:xlink="http://www.w3.org/1999/xlink" width="48" height="48"><defs><style type="text/css"></style></defs><path d="M423.996688 575.251506h79.999375v55.999562c0 13.253896-10.745916 23.999813-23.999813 23.999813h-31.99975c-13.253896 0-23.999813-10.745916-23.999812-23.999813z m-159.99875 23.999812v31.99975c0 13.253896 10.745916 23.999813 23.999812 23.999813h35.999719c11.045914 0 19.999844-8.95393 19.999844-19.999844v-59.999531h-55.999563c-13.253896 0-23.999813 10.743916-23.999812 23.999812z m135.998937-103.999187h-31.99975c-13.253896 0-23.999813 10.745916-23.999812 23.999812v55.999563h79.999375v-55.999563c0-13.255896-10.745916-23.999813-23.999813-23.999812z m623.995125 56.049562v151.948813c0 88.223311-71.775439 159.99875-159.99875 159.99875h-6.853946c-46.359638 125.261021-230.592198 95.261256-233.144179-40.001688 2.56198-135.282943 186.808541-165.240709 233.144179-39.997687H863.99325c44.111655 0 79.999375-35.88772 79.999375-79.999375v-152.172811c0.613995-33.861735-21.535832-65.847486-53.74958-77.635394-0.645995-0.235998-103.917188-44.191655-103.917188-44.191655l-0.331998 0.002h-0.013999l-704.378498-0.173998c-1.065992 8.559933-1.601987 17.219865-1.601987 25.957797v248.214061c0 43.065664 34.205733 78.293388 76.875399 79.939375 37.859704-105.979172 188.506527-105.873173 226.266233 0.06H483.996219c53.071585 2.111984 53.031586 77.905391 0 79.999375h-100.853212c-37.821705 106.045172-188.548527 105.959172-226.300232-0.03C70.069453 861.529269 0 790.419825 0 703.250506V455.034445c0-40.797681 8.437934-80.373372 25.081804-117.623081l72.615433-161.704737c25.765799-57.377552 83.057351-94.455262 145.956859-94.455262h290.003735c52.045593 0 100.983211 25.421801 130.906977 68.005469l141.596894 201.486426 112.62112 47.955625c63.709502 23.811814 105.913173 84.975336 105.209178 152.602808zM229.998203 823.249568c0 22.055828 17.94386 39.999688 39.999688 39.999688 53.065585-2.197983 53.049586-77.809392 0-79.999375-22.055828 0-39.999688 17.94186-39.999688 39.999687z m25.999797-661.994828h-12.343904c-31.449754 0-60.095531 18.537855-72.977429 47.227631L107.53916 349.079273H255.998z m451.314474 187.968532l-108.201155-153.966797a80.079374 80.079374 0 0 0-65.453488-34.001735H335.997375v187.830533zM783.993875 823.249568c0-22.055828-17.94386-39.999688-39.999687-39.999687-53.065585 2.197983-53.049586 77.809392 0 79.999375 22.055828 0 39.999688-17.94386 39.999687-39.999688z m-119.999062-191.9985v-31.99975c0-13.253896-10.745916-23.999813-23.999813-23.999812h-55.999562v55.999562c0 13.253896 10.745916 23.999813 23.999812 23.999813h31.99975c13.253896 0 23.999813-10.745916 23.999813-23.999813z m-103.999188-135.998937h-31.99975c-13.253896 0-23.999813 10.745916-23.999812 23.999812v55.999563h79.999375v-55.999563c0-13.255896-10.745916-23.999813-23.999813-23.999812z" p-id="3607"></path></svg>